
<svg width="22px" height="33px" viewBox="0 0 22 33" version="1.1" xmlns="http://www.w3.org/2000/svg" xmlns:xlink="http://www.w3.org/1999/xlink">
    <g id="Page-1" stroke="none" stroke-width="1" fill="none" fill-rule="evenodd">
        <g id="figma" transform="translate(0.000000, 0.500000)" fill-rule="nonzero">
            <g id="Group-2" transform="translate(0.000000, 0.019370)">
                <g id="Group">
                    <path d="M5.32687651,31.9612591 C8.26731235,31.9612591 10.653753,29.5748184 10.653753,26.6343826 L10.653753,21.3075061 L5.32687651,21.3075061 C2.38644068,21.3075061 0,23.6939467 0,26.6343826 C0,29.5748184 2.38644068,31.9612591 5.32687651,31.9612591 Z" id="path0_fill" fill="#0ACF83"></path>
                    <path d="M0,15.9806295 C0,13.0401937 2.38644068,10.653753 5.32687651,10.653753 L10.653753,10.653753 L10.653753,21.3075061 L5.32687651,21.3075061 C2.38644068,21.3075061 0,18.9210654 0,15.9806295 Z" id="path1_fill" fill="#A259FF"></path>
                    <path d="M0,5.32687651 C0,2.38644068 2.38644068,1.10134124e-13 5.32687651,1.10134124e-13 L10.653753,1.10134124e-13 L10.653753,10.653753 L5.32687651,10.653753 C2.38644068,10.653753 0,8.26731235 0,5.32687651 Z" id="path1_fill_1_" fill="#F24E1E"></path>
                    <path d="M10.6150121,1.10134124e-13 L15.9418886,1.10134124e-13 C18.8823245,1.10134124e-13 21.2687651,2.38644068 21.2687651,5.32687651 C21.2687651,8.26731235 18.8823245,10.653753 15.9418886,10.653753 L10.6150121,10.653753 L10.6150121,1.10134124e-13 Z" id="path2_fill" fill="#FF7262"></path>
                    <path d="M21.2687651,15.9806295 C21.2687651,18.9210654 18.8823245,21.3075061 15.9418886,21.3075061 C13.0014528,21.3075061 10.6150121,18.9210654 10.6150121,15.9806295 C10.6150121,13.0401937 13.0014528,10.653753 15.9418886,10.653753 C18.8823245,10.653753 21.2687651,13.0401937 21.2687651,15.9806295 Z" id="path3_fill" fill="#1ABCFE"></path>
                </g>
            </g>
        </g>
    </g>
</svg>